<svg width="1920" height="1080" viewBox="0 0 1920 1080" fill="none" xmlns="http://www.w3.org/2000/svg">
<path d="M476.072 620.585C481.64 618.071 487.208 615.138 491.92 610.947C502.628 602.148 504.341 590.415 496.203 579.521C491.492 573.236 485.495 567.788 479.071 564.017C464.08 554.38 446.519 551.028 428.958 550.19C420.82 551.447 413.111 551.866 404.973 553.961C386.984 558.151 371.564 566.95 360 578.264V581.197C360 597.539 363.855 613.462 369.851 627.708C379.702 596.701 413.967 577.845 444.377 589.158C449.089 591.253 453.8 594.187 457.655 597.958C464.08 603.824 464.08 610.528 458.083 616.814C455.513 619.747 452.515 622.261 449.089 624.775C431.956 636.089 417.822 649.916 406.686 666.258C405.401 667.515 404.544 669.191 403.259 670.867C405.829 672.962 408.399 674.639 411.397 676.734C426.817 651.592 448.232 633.156 476.072 620.585Z" fill="white"/>
<path d="M495.773 636.507C506.481 632.317 517.188 628.127 527.896 623.517C544.6 616.394 558.306 605.918 568.586 590.834C576.724 579.101 578.865 566.531 575.439 552.284C570.727 534.685 559.591 520.438 545.457 509.125C512.477 481.469 473.929 468.48 430.241 467.642C405.399 468.061 382.699 472.67 361.711 481.05C360.855 486.498 360.426 492.364 360.426 498.23V527.143C375.846 518.343 392.55 512.896 410.539 510.801C452.513 505.773 490.205 515.829 521.9 544.323C526.183 548.094 530.038 552.284 533.036 557.312C543.744 572.397 542.459 589.158 529.181 602.147C523.185 608.014 515.903 613.042 508.194 617.232C498.771 622.679 489.348 626.87 479.497 631.06C454.655 642.792 434.953 659.972 420.818 682.599C424.245 684.694 428.1 686.37 431.526 688.046C446.089 663.743 467.504 646.982 495.773 636.507Z" fill="white"/>
<path d="M563.021 383H477.359C437.526 383 402.404 402.275 380.989 432.025C382.274 431.606 383.13 431.606 384.415 431.187C398.978 428.254 414.397 427.416 422.963 426.578C490.637 427.835 543.747 448.786 587.863 491.107C604.567 507.449 615.275 527.143 617.417 550.189C619.558 575.749 609.279 596.281 590.005 613.042C576.727 625.194 560.023 631.898 543.319 637.764C532.611 641.535 522.76 645.307 512.052 648.659C484.64 657.458 463.653 672.543 448.234 693.494C457.228 695.589 467.08 696.846 476.931 696.846H562.593C627.696 696.846 680.379 645.307 680.379 581.616V498.231C680.807 434.539 627.696 383 563.021 383Z" fill="white"/>
<path d="M852.702 606.286C843.056 606.286 834.439 604.273 826.852 600.247C819.264 596.095 813.284 590.056 808.911 582.129C804.538 574.203 802.352 564.515 802.352 553.066V522.115C802.352 504.878 807.175 491.73 816.82 482.671C826.466 473.486 839.519 468.894 855.981 468.894C872.186 468.894 884.661 473.235 893.406 481.916C902.151 490.472 906.524 501.984 906.524 516.453V517.396H885.882V515.887C885.882 510.476 884.789 505.632 882.603 501.355C880.417 496.951 877.137 493.491 872.764 490.975C868.392 488.458 862.797 487.2 855.981 487.2C845.693 487.2 837.655 490.283 831.867 496.448C826.08 502.487 823.186 510.917 823.186 521.737V553.443C823.186 564.138 826.08 572.63 831.867 578.921C837.655 585.086 845.757 588.169 856.174 588.169C866.463 588.169 873.986 585.401 878.745 579.865C883.503 574.329 885.882 567.157 885.882 558.35V555.897H849.615V538.345H906.524V603.644H887.233V590.245H884.146C882.989 592.635 881.252 595.089 878.938 597.605C876.751 600.121 873.536 602.197 869.292 603.833C865.177 605.469 859.646 606.286 852.702 606.286Z" fill="white"/>
<path d="M933.943 603.644V510.602H953.427V521.548H956.513C958.057 517.648 960.5 514.817 963.844 513.056C967.316 511.168 971.56 510.225 976.576 510.225H987.958V527.776H975.804C969.374 527.776 964.101 529.538 959.986 533.061C955.87 536.458 953.813 541.742 953.813 548.914V603.644H933.943Z" fill="white"/>
<path d="M1035.42 606.286C1028.61 606.286 1022.5 605.154 1017.1 602.889C1011.82 600.625 1007.58 597.29 1004.36 592.887C1001.28 588.483 999.734 583.136 999.734 576.845C999.734 570.428 1001.28 565.144 1004.36 560.992C1007.58 556.714 1011.89 553.506 1017.29 551.367C1022.82 549.228 1029.06 548.159 1036 548.159H1064.94V542.12C1064.94 536.709 1063.27 532.369 1059.92 529.097C1056.58 525.826 1051.43 524.191 1044.49 524.191C1037.67 524.191 1032.46 525.763 1028.86 528.909C1025.26 532.054 1022.88 536.143 1021.73 541.176L1003.21 535.325C1004.75 530.293 1007.19 525.763 1010.54 521.737C1014.01 517.585 1018.58 514.251 1024.23 511.735C1029.89 509.218 1036.71 507.96 1044.68 507.96C1057.03 507.96 1066.74 511.043 1073.81 517.208C1080.89 523.373 1084.42 532.117 1084.42 543.441V581.752C1084.42 585.526 1086.22 587.414 1089.82 587.414H1097.93V603.644H1083.07C1078.57 603.644 1074.91 602.512 1072.08 600.247C1069.25 597.982 1067.83 594.9 1067.83 591V590.433H1064.94C1063.91 592.321 1062.37 594.522 1060.31 597.039C1058.25 599.555 1055.23 601.757 1051.24 603.644C1047.25 605.406 1041.98 606.286 1035.42 606.286ZM1038.32 590.245C1046.29 590.245 1052.72 588.043 1057.61 583.639C1062.49 579.11 1064.94 572.945 1064.94 565.144V563.257H1037.16C1031.89 563.257 1027.64 564.389 1024.43 566.654C1021.21 568.793 1019.6 572.001 1019.6 576.279C1019.6 580.557 1021.28 583.954 1024.62 586.47C1027.96 588.986 1032.53 590.245 1038.32 590.245Z" fill="white"/>
<path d="M1133.96 603.644L1101.94 510.602H1122.97L1148.24 589.301H1151.32L1176.6 510.602H1197.62L1165.6 603.644H1133.96Z" fill="white"/>
<path d="M1216.9 603.644V510.602H1236.77V603.644H1216.9ZM1226.94 497.958C1223.08 497.958 1219.8 496.762 1217.1 494.372C1214.52 491.855 1213.24 488.647 1213.24 484.747C1213.24 480.846 1214.52 477.701 1217.1 475.311C1219.8 472.794 1223.08 471.536 1226.94 471.536C1230.92 471.536 1234.2 472.794 1236.77 475.311C1239.35 477.701 1240.63 480.846 1240.63 484.747C1240.63 488.647 1239.35 491.855 1236.77 494.372C1234.2 496.762 1230.92 497.958 1226.94 497.958Z" fill="white"/>
<path d="M1301.95 603.644C1296.16 603.644 1291.53 601.946 1288.06 598.549C1284.72 595.152 1283.04 590.622 1283.04 584.96V527.021H1256.81V510.602H1283.04V479.84H1302.91V510.602H1331.27V527.021H1302.91V581.563C1302.91 585.338 1304.72 587.225 1308.32 587.225H1328.19V603.644H1301.95Z" fill="white"/>
<path d="M1395.79 606.286C1386.27 606.286 1377.78 604.399 1370.32 600.625C1362.99 596.724 1357.21 591.188 1352.96 584.017C1348.72 576.845 1346.6 568.352 1346.6 558.539V555.708C1346.6 545.894 1348.72 537.464 1352.96 530.419C1357.21 523.247 1362.99 517.711 1370.32 513.811C1377.78 509.91 1386.27 507.96 1395.79 507.96C1405.3 507.96 1413.79 509.91 1421.25 513.811C1428.71 517.711 1434.56 523.247 1438.81 530.419C1443.05 537.464 1445.17 545.894 1445.17 555.708V558.539C1445.17 568.352 1443.05 576.845 1438.81 584.017C1434.56 591.188 1428.71 596.724 1421.25 600.625C1413.79 604.399 1405.3 606.286 1395.79 606.286ZM1395.79 588.924C1404.53 588.924 1411.61 586.218 1417.01 580.808C1422.54 575.272 1425.3 567.66 1425.3 557.972V556.274C1425.3 546.586 1422.6 539.037 1417.2 533.627C1411.8 528.091 1404.66 525.323 1395.79 525.323C1387.17 525.323 1380.1 528.091 1374.57 533.627C1369.17 539.037 1366.47 546.586 1366.47 556.274V557.972C1366.47 567.66 1369.17 575.272 1374.57 580.808C1380.1 586.218 1387.17 588.924 1395.79 588.924Z" fill="white"/>
<path d="M1469.91 603.644V510.602H1489.39V524.568H1492.48C1494.28 520.793 1497.5 517.271 1502.13 513.999C1506.76 510.728 1513.64 509.092 1522.77 509.092C1529.97 509.092 1536.34 510.665 1541.87 513.811C1547.53 516.956 1551.96 521.423 1555.18 527.21C1558.39 532.872 1560 539.729 1560 547.781V603.644H1540.13V549.291C1540.13 541.239 1538.07 535.325 1533.96 531.551C1529.84 527.651 1524.18 525.7 1516.98 525.7C1508.75 525.7 1502.13 528.343 1497.11 533.627C1492.22 538.911 1489.78 546.586 1489.78 556.651V603.644H1469.91Z" fill="white"/>
</svg>
