<svg width="2000" height="627" viewBox="0 0 2000 627" fill="none" xmlns="http://www.w3.org/2000/svg">
<path d="M261.153 409.807C267.669 406.798 274.186 403.286 279.699 398.27C292.231 387.737 294.236 373.692 284.712 360.651C279.198 353.127 272.181 346.606 264.662 342.091C247.118 330.555 226.566 326.542 206.015 325.539C196.491 327.043 187.469 327.545 177.945 330.053C156.892 335.069 138.847 345.603 125.313 359.146V362.657C125.313 382.219 129.825 401.28 136.842 418.334C148.371 381.216 188.471 358.644 224.06 372.187C229.574 374.695 235.088 378.206 239.599 382.721C247.118 389.743 247.118 397.769 240.1 405.293C237.093 408.804 233.584 411.814 229.574 414.823C209.524 428.366 192.982 444.919 179.95 464.482C178.446 465.986 177.444 467.993 175.94 469.999C178.947 472.507 181.955 474.514 185.464 477.022C203.509 446.926 228.571 424.855 261.153 409.807Z" fill="url(#paint0_linear_125_34)"/>
<path d="M284.209 428.868C296.741 423.852 309.272 418.836 321.803 413.318C341.352 404.791 357.392 392.251 369.422 374.194C378.946 360.149 381.453 345.101 377.443 328.046C371.929 306.979 358.896 289.925 342.355 276.382C303.758 243.276 258.645 227.726 207.518 226.723C178.445 227.225 151.879 232.742 127.317 242.774C126.315 249.295 125.813 256.318 125.813 263.34V297.95C143.859 287.417 163.408 280.896 184.46 278.388C233.583 272.369 277.693 284.407 314.786 318.516C319.798 323.03 324.31 328.046 327.818 334.066C340.35 352.123 338.846 372.187 323.307 387.737C316.29 394.759 307.768 400.778 298.746 405.794C287.718 412.315 276.691 417.331 265.162 422.347C236.089 436.392 213.031 456.958 196.49 484.044C200.5 486.552 205.011 488.558 209.021 490.565C226.064 461.472 251.127 441.408 284.209 428.868Z" fill="url(#paint1_linear_125_34)"/>
<path d="M362.909 125.4H262.658C216.041 125.4 174.939 148.474 149.876 184.087C151.38 183.586 152.382 183.586 153.886 183.084C170.929 179.573 188.974 178.57 198.999 177.566C278.197 179.071 340.352 204.151 391.981 254.813C411.53 274.375 424.062 297.95 426.568 325.538C429.074 356.136 417.044 380.714 394.488 400.778C378.949 415.325 359.4 423.35 339.851 430.373C327.32 434.887 315.791 439.401 303.26 443.414C271.179 453.948 246.618 472.005 228.573 497.085C239.099 499.593 250.628 501.098 262.157 501.098H362.408C438.598 501.098 500.252 439.401 500.252 363.158V263.34C500.753 187.097 438.598 125.4 362.909 125.4Z" fill="url(#paint2_linear_125_34)"/>
<path d="M702.01 404.29L735.594 214.685C736.095 211.675 737.599 210.672 740.606 210.672H745.118C747.624 210.672 749.128 211.675 750.13 213.682L812.286 347.107H813.288L875.443 213.682C876.446 211.675 877.95 210.672 880.456 210.672H884.967C887.975 210.672 889.478 212.177 889.98 214.685L923.062 404.29C923.563 406.296 923.062 407.801 922.06 408.804C921.057 409.807 919.553 410.811 918.05 410.811H892.486C889.478 410.811 887.975 409.306 886.972 406.798L870.431 299.957H869.429L820.306 410.811C819.303 412.817 817.799 413.82 815.293 413.82H810.281C808.276 413.82 806.772 412.817 805.268 410.811L755.143 299.957H754.141L737.599 406.798C737.599 407.801 736.596 408.804 735.594 409.807C734.591 410.811 733.589 411.312 732.587 411.312H707.023C703.013 410.811 701.008 408.302 702.01 404.29Z" fill="black"/>
<path d="M950.129 357.641V302.966C950.129 301.462 950.631 299.957 951.633 298.954C952.636 297.95 954.139 297.449 955.643 297.449H978.701C980.204 297.449 981.708 297.95 982.711 298.954C983.713 299.957 984.215 301.462 984.215 302.966V358.644C984.215 366.168 986.22 372.187 989.729 376.2C993.237 380.714 998.25 382.721 1004.77 382.721C1010.28 382.721 1015.29 380.714 1019.8 376.2C1023.81 371.685 1026.82 367.171 1027.32 361.653V302.966C1027.32 300.96 1027.82 299.455 1028.83 298.954C1029.83 298.452 1031.33 297.95 1033.84 297.95H1055.39C1056.9 297.95 1058.4 298.452 1059.4 299.455C1060.41 300.458 1060.91 301.963 1060.91 303.468V405.794C1060.91 407.299 1060.41 408.302 1059.4 409.305C1058.4 410.309 1056.9 410.81 1055.39 410.81H1044.87C1042.36 410.81 1040.86 409.305 1039.35 406.797L1035.84 397.267C1035.84 397.267 1034.84 398.27 1033.84 399.273C1032.84 400.277 1031.83 401.28 1030.83 401.781C1030.33 402.283 1028.83 403.286 1027.32 404.289C1025.82 405.293 1024.31 406.296 1023.31 407.299C1022.31 408.302 1020.3 408.804 1018.3 409.807C1016.29 410.81 1014.29 411.312 1012.29 411.813C1010.28 412.315 1008.27 412.817 1005.27 413.318C1002.76 413.82 1000.25 413.82 997.749 413.82C981.207 413.82 969.177 408.302 961.658 397.769C954.14 387.235 950.129 373.692 950.129 357.641Z" fill="black"/>
<path d="M1093.99 405.293V218.196C1093.99 216.691 1094.49 215.688 1095.49 214.685C1096.5 213.682 1098 213.18 1099 213.18H1122.56C1124.06 213.18 1125.07 213.682 1126.07 214.685C1127.07 215.688 1127.57 217.193 1127.57 218.196V405.293C1127.57 406.798 1127.07 407.801 1126.07 408.804C1125.07 409.807 1123.56 410.309 1122.56 410.309H1099C1097.5 410.309 1096.5 409.807 1095.49 408.804C1094.49 407.801 1093.99 406.798 1093.99 405.293Z" fill="black"/>
<path d="M1168.18 377.203V327.545H1158.65C1157.15 327.545 1156.15 327.043 1155.14 326.04C1154.14 325.037 1153.64 323.532 1153.64 322.027V302.966C1153.64 301.462 1154.14 299.957 1155.14 298.954C1156.15 297.95 1157.15 297.449 1158.65 297.449H1168.18V266.35C1168.18 264.845 1168.68 263.842 1169.68 262.838C1170.68 261.835 1172.19 261.334 1173.69 261.334L1196.75 260.832C1198.25 260.832 1199.25 261.334 1200.26 262.337C1201.26 263.34 1201.76 264.845 1201.76 266.35V297.95H1226.82C1230.33 297.95 1232.34 299.957 1232.34 303.468V322.529C1232.34 324.034 1231.84 325.538 1230.83 326.542C1229.83 327.545 1228.33 328.046 1226.82 328.046H1201.76V373.19C1201.76 379.21 1204.77 382.219 1210.28 382.219C1213.79 382.219 1218.3 381.216 1224.32 379.21C1227.32 378.206 1229.83 379.21 1230.33 382.219L1235.85 399.775C1237.35 402.785 1236.35 405.293 1232.84 406.798C1231.84 407.299 1229.83 407.801 1226.82 409.306C1223.31 410.309 1219.3 411.814 1213.79 412.817C1208.28 413.82 1203.77 414.322 1199.25 414.322C1178.7 413.318 1168.18 401.28 1168.18 377.203Z" fill="black"/>
<path d="M1276.45 257.823C1270.93 257.823 1266.42 255.816 1262.91 252.305C1258.9 248.292 1257.4 243.778 1257.4 238.26C1257.4 232.743 1259.41 228.228 1262.91 224.215C1266.92 220.203 1271.44 218.698 1276.45 218.698C1281.96 218.698 1286.47 220.704 1290.48 224.215C1294.49 228.228 1296.5 232.743 1296.5 238.26C1296.5 243.778 1294.49 248.292 1290.48 252.305C1286.47 255.816 1281.96 257.823 1276.45 257.823ZM1259.91 405.293V302.967C1259.91 301.462 1260.41 299.957 1261.41 298.954C1262.41 297.951 1263.92 297.449 1265.42 297.449H1288.98C1290.48 297.449 1291.99 297.951 1292.99 298.954C1293.99 299.957 1294.49 301.462 1294.49 302.967V405.293C1294.49 406.798 1293.99 407.801 1292.99 408.804C1291.99 409.807 1290.48 410.309 1288.98 410.309H1265.42C1263.92 410.309 1262.91 409.807 1261.91 408.804C1260.41 407.801 1259.91 406.798 1259.91 405.293Z" fill="black"/>
<path d="M1364.16 410.81L1313.04 304.471C1312.03 302.465 1312.03 300.96 1312.54 299.455C1313.04 297.95 1314.54 297.449 1316.55 297.449H1341.11C1343.61 297.449 1345.12 298.452 1346.12 300.458L1369.18 353.126H1369.68L1393.74 300.458C1394.74 298.452 1396.75 297.449 1400.76 297.449H1422.81C1424.82 297.449 1426.32 297.95 1426.82 299.455C1427.32 300.96 1427.32 302.465 1426.32 304.471L1374.69 410.81C1373.69 412.817 1372.18 413.82 1369.68 413.82H1368.17C1366.67 413.318 1365.17 412.315 1364.16 410.81Z" fill="black"/>
<path d="M1437.35 354.129C1437.35 338.078 1442.86 324.034 1453.89 312.497C1464.92 300.96 1478.45 294.941 1494.99 294.941C1509.53 294.941 1522.06 299.957 1532.59 309.989C1542.61 320.021 1548.13 332.561 1548.13 347.609C1548.13 350.117 1548.13 352.625 1547.62 355.133C1547.12 358.142 1545.62 360.149 1542.11 360.149H1469.93C1470.43 366.669 1472.94 372.187 1477.95 377.203C1482.96 382.219 1489.48 384.727 1497 384.727C1505.02 384.727 1512.54 382.219 1519.05 377.705C1522.06 375.698 1524.57 375.698 1526.57 377.705L1538.1 390.746C1540.61 393.254 1540.61 395.762 1537.6 398.27C1526.57 408.804 1512.54 413.82 1495.49 413.82C1478.95 413.82 1464.92 408.302 1453.89 396.765C1442.86 384.727 1437.35 370.682 1437.35 354.129ZM1471.94 340.085H1514.54C1514.04 335.069 1512.04 330.053 1508.03 326.542C1504.02 322.529 1499.5 321.024 1493.99 321.024C1488.48 321.024 1483.46 323.03 1479.45 326.542C1474.94 330.053 1472.44 334.567 1471.94 340.085Z" fill="black"/>
<path d="M1571.18 405.293V302.967C1571.18 301.462 1571.68 299.957 1572.69 298.954C1573.69 297.951 1575.19 297.449 1576.7 297.449H1587.22C1589.73 297.449 1591.23 298.452 1592.24 300.96L1596.25 311.995C1604.27 300.459 1614.79 294.439 1628.33 294.439C1635.34 294.439 1641.36 295.443 1645.87 297.449C1650.38 299.455 1651.89 302.465 1649.88 305.475L1639.35 324.034C1637.85 327.043 1635.34 328.047 1632.84 326.542C1629.33 325.539 1626.82 325.037 1624.82 325.037C1619.81 325.037 1615.29 326.542 1611.79 329.05C1608.28 331.558 1605.77 334.066 1604.77 336.574V404.791C1604.77 408.303 1602.76 410.309 1598.25 410.309H1576.7C1575.19 410.309 1574.19 409.807 1573.19 408.804C1571.68 407.801 1571.18 406.798 1571.18 405.293Z" fill="black"/>
<path d="M1662.91 403.287C1660.4 401.28 1659.9 399.274 1661.41 397.267L1668.93 382.219C1669.93 379.21 1672.43 378.708 1675.44 380.213C1683.96 384.727 1692.48 387.235 1701.01 387.235C1707.52 387.235 1710.53 384.727 1710.53 380.213C1710.53 377.705 1709.03 375.197 1706.52 373.191C1704.01 371.184 1699 368.676 1691.48 365.667C1670.43 357.139 1659.4 345.101 1659.4 328.548C1659.4 319.018 1662.91 310.992 1669.93 304.973C1676.95 298.452 1687.47 295.443 1701.01 295.443C1715.54 295.443 1727.07 298.452 1735.59 303.97C1738.6 305.976 1739.6 308.484 1738.1 311.494L1731.08 326.04C1729.58 328.548 1727.57 329.05 1724.06 328.047C1715.54 324.034 1708.02 322.027 1700.5 322.027C1693.99 322.027 1690.98 324.034 1690.98 328.548C1690.98 331.056 1691.98 332.561 1693.49 333.564C1695.49 334.567 1699 336.574 1704.51 338.58C1705.52 339.082 1706.02 339.082 1706.52 339.583C1719.05 344.599 1728.57 349.615 1735.09 355.635C1741.61 361.152 1744.62 369.178 1744.62 379.711C1744.62 389.743 1740.61 397.769 1732.58 404.29C1724.56 410.811 1713.54 414.322 1700 414.322C1684.46 413.319 1671.93 409.807 1662.91 403.287Z" fill="black"/>
<path d="M1761.66 354.129C1761.66 338.078 1767.17 324.034 1778.2 312.497C1789.23 300.96 1802.76 294.941 1819.3 294.941C1833.84 294.941 1846.37 299.957 1856.9 309.989C1866.92 320.021 1872.44 332.561 1872.44 347.609C1872.44 350.117 1872.44 352.625 1871.94 355.133C1871.43 358.142 1869.93 360.149 1866.42 360.149H1794.24C1794.74 366.669 1797.25 372.187 1802.26 377.203C1807.27 382.219 1813.79 384.727 1821.31 384.727C1829.33 384.727 1836.85 382.219 1843.36 377.705C1846.37 375.698 1848.88 375.698 1850.88 377.705L1862.41 390.746C1864.92 393.254 1864.92 395.762 1861.91 398.27C1850.88 408.804 1836.85 413.82 1819.81 413.82C1803.26 413.82 1789.23 408.302 1778.2 396.765C1767.17 384.727 1761.66 370.682 1761.66 354.129ZM1796.25 340.085H1838.85C1838.35 335.069 1836.35 330.053 1832.34 326.542C1828.33 322.529 1823.82 321.024 1818.3 321.024C1812.79 321.024 1807.78 323.03 1803.77 326.542C1799.25 330.053 1797.25 334.567 1796.25 340.085Z" fill="black"/>
<defs>
<linearGradient id="paint0_linear_125_34" x1="290.685" y1="477.022" x2="98.9204" y2="375.289" gradientUnits="userSpaceOnUse">
<stop stop-color="#0E00A6"/>
<stop offset="0.223958" stop-color="#2914BC"/>
<stop offset="0.682064" stop-color="#652FFF"/>
<stop offset="1" stop-color="#9E84FF"/>
</linearGradient>
<linearGradient id="paint1_linear_125_34" x1="379.279" y1="490.565" x2="70.0376" y2="346.199" gradientUnits="userSpaceOnUse">
<stop stop-color="#0E00A6"/>
<stop offset="0.223958" stop-color="#2914BC"/>
<stop offset="0.682064" stop-color="#652FFF"/>
<stop offset="1" stop-color="#9E84FF"/>
</linearGradient>
<linearGradient id="paint2_linear_125_34" x1="500.255" y1="501.098" x2="68.324" y2="305.346" gradientUnits="userSpaceOnUse">
<stop stop-color="#0E00A6"/>
<stop offset="0.223958" stop-color="#2914BC"/>
<stop offset="0.682064" stop-color="#652FFF"/>
<stop offset="1" stop-color="#9E84FF"/>
</linearGradient>
</defs>
</svg>
