<svg width="512" height="160" viewBox="0 0 512 160" fill="none" xmlns="http://www.w3.org/2000/svg">
<path d="M165.615 105.283V59.7106H179.004L189.094 100.595H190.149L200.24 59.7106H213.628V105.283H206.703V64.6585H205.648L195.623 105.283H183.62L173.596 64.6585H172.54V105.283H165.615Z" fill="#181818"/>
<path d="M235.921 105.869C233.459 105.869 231.261 105.326 229.326 104.241C227.392 103.156 225.875 101.615 224.775 99.6187C223.676 97.6223 223.127 95.2351 223.127 92.4574V73.1869H229.92V92.0017C229.92 94.7794 230.623 96.841 232.03 98.1865C233.437 99.4885 235.394 100.14 237.9 100.14C240.67 100.14 242.89 99.2281 244.561 97.4052C246.276 95.539 247.133 92.8697 247.133 89.3976V73.1869H253.926V105.283H247.265V100.465H246.21C245.594 101.767 244.495 103.004 242.912 104.176C241.329 105.304 238.999 105.869 235.921 105.869Z" fill="#181818"/>
<path d="M263.968 105.283V59.7106H270.761V105.283H263.968Z" fill="#181818"/>
<path d="M293.043 105.283C291.064 105.283 289.481 104.697 288.294 103.525C287.151 102.353 286.58 100.791 286.58 98.8375V78.8509H277.61V73.1869H286.58V62.5752H293.373V73.1869H303.067V78.8509H293.373V97.6657C293.373 98.9677 293.988 99.6187 295.219 99.6187H302.012V105.283H293.043Z" fill="#181818"/>
<path d="M311.048 105.283V73.1869H317.841V105.283H311.048ZM314.478 68.825C313.159 68.825 312.037 68.4127 311.114 67.5881C310.235 66.7201 309.795 65.6133 309.795 64.2678C309.795 62.9224 310.235 61.8373 311.114 61.0127C312.037 60.1447 313.159 59.7106 314.478 59.7106C315.841 59.7106 316.962 60.1447 317.841 61.0127C318.72 61.8373 319.16 62.9224 319.16 64.2678C319.16 65.6133 318.72 66.7201 317.841 67.5881C316.962 68.4127 315.841 68.825 314.478 68.825Z" fill="#181818"/>
<path d="M335.441 105.283L324.493 73.1869H331.682L340.321 100.335H341.376L350.016 73.1869H357.205L346.257 105.283H335.441Z" fill="#181818"/>
<path d="M377.606 106.194C374.309 106.194 371.429 105.521 368.967 104.176C366.505 102.787 364.57 100.856 363.163 98.3818C361.8 95.8645 361.119 92.9565 361.119 89.658V88.8768C361.119 85.5348 361.8 82.6269 363.163 80.153C364.526 77.6356 366.417 75.7043 368.835 74.3588C371.297 72.9699 374.133 72.2755 377.343 72.2755C380.464 72.2755 383.19 72.9699 385.521 74.3588C387.895 75.7043 389.742 77.5922 391.061 80.0228C392.38 82.4533 393.039 85.2961 393.039 88.5512V91.0903H368.044C368.131 93.9114 369.077 96.1683 370.879 97.861C372.726 99.5102 375.012 100.335 377.738 100.335C380.289 100.335 382.201 99.7707 383.476 98.6422C384.795 97.5138 385.806 96.2117 386.51 94.736L392.116 97.6006C391.5 98.8158 390.599 100.096 389.412 101.442C388.269 102.787 386.752 103.916 384.861 104.827C382.971 105.738 380.552 106.194 377.606 106.194ZM368.109 85.9471H386.114C385.938 83.5166 385.059 81.6286 383.476 80.2832C381.893 78.8943 379.827 78.1999 377.277 78.1999C374.727 78.1999 372.638 78.8943 371.011 80.2832C369.428 81.6286 368.461 83.5166 368.109 85.9471Z" fill="#181818"/>
<path d="M401.216 105.283V73.1869H407.877V76.9629H408.932C409.46 75.6175 410.295 74.6409 411.439 74.0333C412.626 73.3823 414.077 73.0567 415.791 73.0567H419.682V79.1113H415.527C413.329 79.1113 411.526 79.7189 410.119 80.9342C408.713 82.1061 408.009 83.9289 408.009 86.4028V105.283H401.216Z" fill="#181818"/>
<path d="M439.334 106.194C435.201 106.194 431.772 105.283 429.046 103.46C426.32 101.637 424.649 98.8809 424.034 95.1917L430.365 93.6944C430.717 95.4739 431.31 96.8844 432.146 97.9261C432.981 98.9677 434.014 99.7055 435.245 100.14C436.52 100.574 437.883 100.791 439.334 100.791C441.489 100.791 443.138 100.378 444.281 99.5536C445.468 98.729 446.061 97.6657 446.061 96.3636C446.061 95.0615 445.512 94.1067 444.413 93.4991C443.313 92.8914 441.687 92.3923 439.532 92.0017L437.29 91.6111C435.092 91.2205 433.091 90.6562 431.288 89.9184C429.486 89.1806 428.057 88.1606 427.001 86.8586C425.946 85.5565 425.419 83.8855 425.419 81.8456C425.419 78.8075 426.562 76.4638 428.848 74.8145C431.134 73.1218 434.168 72.2755 437.949 72.2755C441.599 72.2755 444.589 73.1001 446.919 74.7494C449.293 76.3553 450.832 78.5471 451.535 81.3248L445.204 83.0826C444.808 81.1295 443.973 79.7623 442.698 78.9811C441.423 78.1565 439.84 77.7442 437.949 77.7442C436.103 77.7442 434.652 78.0914 433.597 78.7858C432.541 79.4368 432.014 80.37 432.014 81.5852C432.014 82.8873 432.519 83.8421 433.531 84.4498C434.586 85.0574 435.993 85.5131 437.752 85.8169L440.06 86.2075C442.39 86.5982 444.523 87.1407 446.457 87.8351C448.392 88.5295 449.909 89.5278 451.008 90.8298C452.151 92.1319 452.723 93.868 452.723 96.0381C452.723 99.2498 451.513 101.745 449.095 103.525C446.677 105.304 443.423 106.194 439.334 106.194Z" fill="#181818"/>
<path d="M475.567 106.194C472.27 106.194 469.39 105.521 466.928 104.176C464.466 102.787 462.531 100.856 461.124 98.3818C459.761 95.8645 459.08 92.9565 459.08 89.658V88.8768C459.08 85.5348 459.761 82.6269 461.124 80.153C462.487 77.6356 464.378 75.7043 466.796 74.3588C469.258 72.9699 472.094 72.2755 475.304 72.2755C478.425 72.2755 481.151 72.9699 483.482 74.3588C485.856 75.7043 487.703 77.5922 489.022 80.0228C490.341 82.4533 491 85.2961 491 88.5512V91.0903H466.005C466.092 93.9114 467.038 96.1683 468.84 97.861C470.687 99.5102 472.973 100.335 475.699 100.335C478.25 100.335 480.162 99.7707 481.437 98.6422C482.756 97.5138 483.767 96.2117 484.471 94.736L490.077 97.6006C489.461 98.8158 488.56 100.096 487.373 101.442C486.23 102.787 484.713 103.916 482.822 104.827C480.932 105.738 478.513 106.194 475.567 106.194ZM466.07 85.9471H484.075C483.899 83.5166 483.02 81.6286 481.437 80.2832C479.854 78.8943 477.788 78.1999 475.238 78.1999C472.688 78.1999 470.599 78.8943 468.972 80.2832C467.39 81.6286 466.422 83.5166 466.07 85.9471Z" fill="#181818"/>
<path d="M59.1825 106.798C61.0141 105.977 62.8457 105.02 64.3956 103.652C67.918 100.778 68.4815 96.9476 65.8045 93.3904C64.2547 91.3381 62.2822 89.5595 60.1687 88.3281C55.2374 85.1813 49.4607 84.0868 43.684 83.8132C41.007 84.2236 38.471 84.3604 35.794 85.0445C29.8764 86.4127 24.8042 89.2858 21 92.9799V93.9376C21 99.2735 22.268 104.473 24.2406 109.124C27.4811 98.9998 38.7527 92.8431 48.7562 96.5371C50.3061 97.2212 51.8559 98.1789 53.124 99.4103C55.2374 101.326 55.2374 103.515 53.2649 105.567C52.4195 106.525 51.4333 107.346 50.3061 108.167C44.6703 111.861 40.0207 116.376 36.3575 121.711C35.9348 122.122 35.653 122.669 35.2303 123.216C36.0757 123.901 36.9211 124.448 37.9074 125.132C42.9796 116.923 50.0243 110.903 59.1825 106.798Z" fill="url(#paint0_linear_516_1330)"/>
<path d="M65.1107 111.264C68.6005 109.857 72.0903 108.449 75.58 106.901C81.0241 104.509 85.491 100.99 88.8412 95.9234C91.4934 91.9826 92.1914 87.7604 91.0747 82.9753C89.5392 77.0642 85.9098 72.279 81.3033 68.479C70.5548 59.1902 57.9916 54.8273 43.7533 54.5458C35.657 54.6865 28.2587 56.2347 21.4188 59.0495C21.1396 60.8791 21 62.8494 21 64.8198V74.5309C26.0253 71.5753 31.4693 69.7457 37.3322 69.042C51.0121 67.3531 63.2961 70.7309 73.6258 80.3012C75.0217 81.5679 76.278 82.9753 77.2551 84.6642C80.7449 89.7308 80.3262 95.3604 75.9989 99.7234C74.0446 101.694 71.6715 103.383 69.1589 104.79C66.0879 106.62 63.0169 108.027 59.8063 109.434C51.71 113.375 45.2888 119.145 40.6823 126.745C41.799 127.449 43.0553 128.012 44.1721 128.575C48.9182 120.412 55.8977 114.783 65.1107 111.264Z" fill="url(#paint1_linear_516_1330)"/>
<path d="M87.5512 27H59.4737C46.4176 27 34.9059 33.4497 27.8865 43.4047C28.3076 43.2645 28.5884 43.2645 29.0096 43.1243C33.7827 42.1428 38.8367 41.8624 41.6445 41.582C63.8257 42.0026 81.2338 49.0132 95.6937 63.1745C101.169 68.6428 104.679 75.2327 105.38 82.9443C106.082 91.4972 102.713 98.3676 96.3956 103.976C92.0436 108.042 86.5686 110.286 81.0934 112.249C77.5838 113.51 74.3549 114.772 70.8452 115.894C61.8603 118.838 54.9813 123.886 49.9274 130.897C52.8755 131.598 56.1044 132.018 59.3334 132.018H87.4109C108.75 132.018 126.018 114.772 126.018 93.4602V65.5581C126.158 44.246 108.75 27 87.5512 27Z" fill="url(#paint2_linear_516_1330)"/>
<defs>
<linearGradient id="paint0_linear_516_1330" x1="21.7507" y1="87.1453" x2="47.1073" y2="129.277" gradientUnits="userSpaceOnUse">
<stop stop-color="#FF7F69"/>
<stop offset="0.299586" stop-color="#FF2D83"/>
<stop offset="1" stop-color="#6695FF"/>
</linearGradient>
<linearGradient id="paint1_linear_516_1330" x1="22.14" y1="60.5159" x2="70.6813" y2="128.874" gradientUnits="userSpaceOnUse">
<stop stop-color="#FF7F69"/>
<stop offset="0.299586" stop-color="#FF2D83"/>
<stop offset="1" stop-color="#6695FF"/>
</linearGradient>
<linearGradient id="paint2_linear_516_1330" x1="29.4713" y1="35.4692" x2="98.7795" y2="131.121" gradientUnits="userSpaceOnUse">
<stop stop-color="#FF7F69"/>
<stop offset="0.299586" stop-color="#FF2D83"/>
<stop offset="1" stop-color="#6695FF"/>
</linearGradient>
</defs>
</svg>
