<svg width="200" height="200" viewBox="0 0 200 200" fill="none" xmlns="http://www.w3.org/2000/svg">
<path d="M83.3366 131.002C85.42 130.042 87.5034 128.922 89.2663 127.322C93.2728 123.962 93.9138 119.482 90.8689 115.322C89.106 112.922 86.8624 110.842 84.4585 109.402C78.8494 105.722 72.2787 104.442 65.708 104.122C62.6631 104.602 59.7785 104.762 56.7335 105.562C50.0026 107.162 44.2333 110.522 39.9062 114.842V115.962C39.9062 122.202 41.3486 128.282 43.5922 133.722C47.2782 121.882 60.0989 114.682 71.4774 119.002C73.2402 119.802 75.0031 120.922 76.4455 122.362C78.8494 124.602 78.8493 127.162 76.6057 129.562C75.6441 130.682 74.5224 131.642 73.2403 132.602C66.8299 136.922 61.5413 142.202 57.3745 148.442C56.8937 148.922 56.5732 149.562 56.0925 150.202C57.054 151.002 58.0156 151.642 59.1374 152.442C64.9068 142.842 72.9197 135.802 83.3366 131.002Z" fill="url(#paint0_linear_194_6894)"/>
<path d="M90.708 137.081C94.7145 135.481 98.721 133.881 102.727 132.121C108.978 129.401 114.106 125.401 117.952 119.641C120.997 115.161 121.798 110.361 120.516 104.921C118.754 98.2011 114.587 92.7611 109.298 88.4411C96.9582 77.8811 82.5347 72.9211 66.1882 72.6011C56.8932 72.7611 48.3994 74.5211 40.5467 77.7211C40.2262 79.8011 40.0659 82.0411 40.0659 84.2811V95.3211C45.8353 91.9611 52.0854 89.8811 58.8163 89.0811C74.5218 87.1611 88.6247 91.0011 100.484 101.881C102.086 103.321 103.529 104.921 104.651 106.841C108.657 112.601 108.176 119.001 103.208 123.961C100.965 126.201 98.2402 128.121 95.3556 129.721C91.8298 131.801 88.3041 133.401 84.6181 135.001C75.3231 139.481 67.9511 146.041 62.6625 154.681C63.9446 155.481 65.3869 156.121 66.669 156.761C72.1178 147.481 80.1308 141.081 90.708 137.081Z" fill="url(#paint1_linear_194_6894)"/>
<path d="M115.87 40.2812H83.8177C68.9136 40.2812 55.7723 47.6413 47.7593 59.0013C48.2401 58.8413 48.5606 58.8413 49.0413 58.6813C54.4902 57.5613 60.2595 57.2413 63.4647 56.9213C88.7858 57.4013 108.658 65.4013 125.165 81.5613C131.415 87.8013 135.421 95.3213 136.223 104.121C137.024 113.881 133.178 121.721 125.966 128.121C120.998 132.761 114.748 135.321 108.498 137.561C104.491 139.001 100.805 140.441 96.7988 141.721C86.5422 145.081 78.6894 150.841 72.9201 158.841C76.2855 159.641 79.9715 160.121 83.6575 160.121H115.709C140.069 160.121 159.781 140.441 159.781 116.121V84.2813C159.941 59.9613 140.069 40.2812 115.87 40.2812Z" fill="url(#paint2_linear_194_6894)"/>
<defs>
<linearGradient id="paint0_linear_194_6894" x1="92.7786" y1="152.442" x2="31.5303" y2="119.874" gradientUnits="userSpaceOnUse">
<stop stop-color="#0E00A6"/>
<stop offset="0.223958" stop-color="#2914BC"/>
<stop offset="0.682064" stop-color="#652FFF"/>
<stop offset="1" stop-color="#9E84FF"/>
</linearGradient>
<linearGradient id="paint1_linear_194_6894" x1="121.103" y1="156.761" x2="22.3154" y2="110.536" gradientUnits="userSpaceOnUse">
<stop stop-color="#0E00A6"/>
<stop offset="0.223958" stop-color="#2914BC"/>
<stop offset="0.682064" stop-color="#652FFF"/>
<stop offset="1" stop-color="#9E84FF"/>
</linearGradient>
<linearGradient id="paint2_linear_194_6894" x1="159.782" y1="160.121" x2="21.7947" y2="97.4404" gradientUnits="userSpaceOnUse">
<stop stop-color="#0E00A6"/>
<stop offset="0.223958" stop-color="#2914BC"/>
<stop offset="0.682064" stop-color="#652FFF"/>
<stop offset="1" stop-color="#9E84FF"/>
</linearGradient>
</defs>
</svg>
