<svg width="256" height="256" viewBox="0 0 256 256" fill="none" xmlns="http://www.w3.org/2000/svg">
<path d="M106.671 167.681C109.338 166.452 112.004 165.019 114.261 162.971C119.389 158.67 120.21 152.936 116.312 147.611C114.056 144.539 111.184 141.876 108.107 140.033C100.927 135.323 92.5168 133.685 84.1064 133.275C80.2089 133.889 76.5165 134.094 72.619 135.118C64.0034 137.166 56.6187 141.467 51.0801 146.996V148.43C51.0801 156.417 52.9262 164.2 55.7981 171.163C60.5162 156.008 76.9267 146.792 91.4911 152.321C93.7475 153.345 96.0041 154.779 97.8503 156.622C100.927 159.489 100.927 162.766 98.0554 165.838C96.8246 167.272 95.3887 168.5 93.7476 169.729C85.5423 175.259 78.7729 182.017 73.4395 190.004C72.8241 190.619 72.4138 191.438 71.7984 192.257C73.0292 193.281 74.2601 194.1 75.696 195.124C83.0808 182.836 93.3373 173.825 106.671 167.681Z" fill="url(#paint0_linear_194_6918)"/>
<path d="M116.107 175.464C121.235 173.416 126.363 171.368 131.491 169.115C139.492 165.633 146.056 160.513 150.979 153.14C154.877 147.406 155.902 141.262 154.261 134.299C152.005 125.697 146.671 118.734 139.902 113.204C124.107 99.6876 105.645 93.3388 84.7213 92.9292C72.8236 93.134 61.9515 95.3868 51.9 99.4828C51.4898 102.145 51.2847 105.012 51.2847 107.88V122.011C58.6694 117.71 66.6696 115.048 75.2852 114.024C95.3882 111.566 113.44 116.481 128.62 130.408C130.671 132.251 132.517 134.299 133.953 136.756C139.081 144.129 138.466 152.321 132.107 158.67C129.235 161.537 125.748 163.995 122.055 166.043C117.542 168.705 113.03 170.753 108.312 172.801C96.4138 178.536 86.9777 186.932 80.2083 197.992C81.8494 199.016 83.6956 199.835 85.3366 200.654C92.3111 188.776 102.568 180.584 116.107 175.464Z" fill="url(#paint1_linear_194_6918)"/>
<path d="M148.314 51.5596H107.287C88.2098 51.5596 71.3889 60.9804 61.1323 75.5212C61.7477 75.3164 62.158 75.3164 62.7734 75.1116C69.7479 73.678 77.1326 73.2684 81.2353 72.8588C113.646 73.4732 139.083 83.7132 160.211 104.398C168.211 112.385 173.34 122.011 174.365 133.275C175.391 145.768 170.468 155.803 161.237 163.995C154.878 169.934 146.878 173.211 138.878 176.078C133.749 177.921 129.031 179.764 123.903 181.403C110.774 185.704 100.723 193.076 93.3381 203.316C97.6459 204.34 102.364 204.955 107.082 204.955H148.109C179.289 204.955 204.52 179.764 204.52 148.635V107.88C204.725 76.75 179.289 51.5596 148.314 51.5596Z" fill="url(#paint2_linear_194_6918)"/>
<defs>
<linearGradient id="paint0_linear_194_6918" x1="118.757" y1="195.124" x2="40.3588" y2="153.438" gradientUnits="userSpaceOnUse">
<stop stop-color="#0E00A6"/>
<stop offset="0.223958" stop-color="#2914BC"/>
<stop offset="0.682064" stop-color="#652FFF"/>
<stop offset="1" stop-color="#9E84FF"/>
</linearGradient>
<linearGradient id="paint1_linear_194_6918" x1="155.013" y1="200.654" x2="28.564" y2="141.486" gradientUnits="userSpaceOnUse">
<stop stop-color="#0E00A6"/>
<stop offset="0.223958" stop-color="#2914BC"/>
<stop offset="0.682064" stop-color="#652FFF"/>
<stop offset="1" stop-color="#9E84FF"/>
</linearGradient>
<linearGradient id="paint2_linear_194_6918" x1="204.521" y1="204.955" x2="27.8976" y2="124.723" gradientUnits="userSpaceOnUse">
<stop stop-color="#0E00A6"/>
<stop offset="0.223958" stop-color="#2914BC"/>
<stop offset="0.682064" stop-color="#652FFF"/>
<stop offset="1" stop-color="#9E84FF"/>
</linearGradient>
</defs>
</svg>
