<svg width="1080" height="1080" viewBox="0 0 1080 1080" fill="none" xmlns="http://www.w3.org/2000/svg">
<path d="M451.868 704.487C462.991 699.36 474.114 693.379 483.526 684.834C504.916 666.89 508.338 642.965 492.082 620.749C482.67 607.932 470.692 596.823 457.858 589.133C427.912 569.48 392.832 562.644 357.752 560.936C341.495 563.499 326.095 564.353 309.838 568.626C273.903 577.171 243.101 595.114 220 618.185V624.167C220 657.491 227.7 689.961 239.679 719.013C259.358 655.782 327.806 617.331 388.553 640.401C397.965 644.674 407.377 650.655 415.077 658.345C427.912 670.308 427.911 683.98 415.933 696.797C410.799 702.778 404.81 707.905 397.965 713.032C363.741 736.102 335.506 764.3 313.26 797.624C310.694 800.188 308.983 803.606 306.416 807.024C311.549 811.296 316.683 814.714 322.672 818.986C353.474 767.718 396.254 730.121 451.868 704.487Z" fill="#181818"/>
<path d="M491.222 736.955C512.612 728.411 534.002 719.866 555.393 710.467C588.761 695.941 616.14 674.579 636.675 643.818C652.931 619.893 657.21 594.259 650.365 565.207C640.953 529.319 618.707 500.267 590.473 477.196C524.591 420.801 447.587 394.312 360.315 392.603C310.69 393.457 265.343 402.857 223.419 419.946C221.707 431.054 220.852 443.017 220.852 454.98V513.938C251.654 495.994 285.022 484.886 320.958 480.614C404.807 470.36 480.1 490.867 543.414 548.972C551.97 556.662 559.671 565.206 565.66 575.46C587.05 606.221 584.483 640.4 557.96 666.889C545.981 678.851 531.436 689.105 516.035 697.65C497.212 708.758 478.388 717.303 458.709 725.847C409.084 749.773 369.727 784.806 341.492 830.947C348.337 835.22 356.037 838.638 362.882 842.056C391.972 792.496 434.752 758.317 491.222 736.955Z" fill="#181818"/>
<path d="M625.559 220H454.438C374.867 220 304.708 259.306 261.928 319.973C264.495 319.119 266.206 319.119 268.772 318.264C297.863 312.283 328.665 310.574 345.777 308.865C480.962 311.429 587.057 354.152 675.184 440.454C708.553 473.778 729.943 513.939 734.221 560.935C738.499 613.057 717.964 654.927 679.462 689.105C652.938 713.885 619.57 727.557 586.202 739.519C564.812 747.21 545.133 754.9 523.743 761.736C468.984 779.68 427.059 810.441 396.258 853.164C414.225 857.437 433.904 860 453.583 860H624.704C754.755 860 859.995 754.9 859.995 625.02V454.98C860.85 325.1 754.755 220 625.559 220Z" fill="#181818"/>
</svg>
