<svg width="256" height="256" viewBox="0 0 256 256" fill="none" xmlns="http://www.w3.org/2000/svg">
<path d="M99.392 181.616C103.057 179.987 106.721 178.086 109.822 175.371C116.869 169.669 117.997 162.066 112.641 155.007C109.54 150.934 105.594 147.404 101.365 144.96C91.4991 138.715 79.9416 136.543 68.3841 136C63.0282 136.815 57.9543 137.086 52.5984 138.444C40.759 141.159 30.611 146.861 23 154.192V156.093C23 166.682 25.537 177 29.4834 186.232C35.9669 166.139 58.5179 153.921 78.5321 161.252C81.6329 162.609 84.7338 164.51 87.2708 166.954C91.4991 170.755 91.4991 175.099 87.5526 179.172C85.8613 181.073 83.8881 182.702 81.633 184.331C70.3574 191.662 61.055 200.623 53.7259 211.212C52.8802 212.026 52.3164 213.113 51.4708 214.199C53.1621 215.556 54.8535 216.642 56.8267 218C66.9748 201.709 81.0692 189.762 99.392 181.616Z" fill="white"/>
<path d="M110.489 190.625C117.411 187.831 124.332 185.036 131.254 181.962C142.051 177.211 150.911 170.224 157.556 160.163C162.816 152.338 164.201 143.954 161.986 134.452C158.94 122.715 151.742 113.213 142.605 105.667C121.287 87.2224 96.3689 78.5589 68.1288 78C52.0707 78.2795 37.3969 81.3536 23.8306 86.943C23.2768 90.576 23 94.4886 23 98.4011V117.684C32.9671 111.816 43.7648 108.183 55.3931 106.785C82.5258 103.432 106.89 110.139 127.378 129.143C130.146 131.658 132.638 134.452 134.576 137.806C141.498 147.867 140.667 159.046 132.084 167.709C128.208 171.622 123.502 174.975 118.518 177.77C112.427 181.403 106.336 184.198 99.9681 186.992C83.91 194.817 71.1742 206.276 62.0377 221.367C64.2526 222.764 66.7444 223.882 68.9593 225C78.3727 208.791 92.2159 197.612 110.489 190.625Z" fill="white"/>
<path d="M155.561 23H99.7677C73.8237 23 50.9484 35.8358 37 55.6475C37.8369 55.3685 38.3948 55.3685 39.2317 55.0895C48.7166 53.1362 58.7594 52.5781 64.3388 52.02C108.416 52.8571 143.008 66.8091 171.741 94.992C182.621 105.874 189.595 118.989 190.99 134.336C192.385 151.358 185.69 165.031 173.136 176.192C164.488 184.284 153.608 188.749 142.729 192.656C135.755 195.167 129.338 197.678 122.364 199.911C104.51 205.77 90.8408 215.816 80.7979 229.768C86.6562 231.163 93.0725 232 99.4888 232H155.282C197.685 232 231.998 197.678 231.998 155.264V99.7356C232.277 57.3218 197.685 23 155.561 23Z" fill="white"/>
</svg>
