<svg width="220" height="220" viewBox="0 0 220 220" fill="none" xmlns="http://www.w3.org/2000/svg">
<path fill-rule="evenodd" clip-rule="evenodd" d="M197 158V86.556C197 73.3012 186.255 62.556 173 62.556H116.186C109.049 62.556 102.282 59.3794 97.7222 53.8886L90.8952 45.6674C86.3356 40.1766 79.5686 37 72.4314 37H47C33.7452 37 23 47.7452 23 61V79.1436C29.9287 77.9054 37.8327 77.6307 44.1341 77.4585C74.5863 78.0356 98.479 87.6747 118.328 107.248C125.841 114.787 130.654 123.886 131.618 134.52C132.608 146.32 127.966 155.799 119.293 163.548C113.32 169.147 105.796 172.241 98.2835 174.955C96.8676 175.468 95.4845 175.981 94.1148 176.489C90.829 177.707 87.6208 178.897 84.224 179.989C82.3604 180.565 80.5352 181.237 78.7547 182H173C186.255 182 197 171.255 197 158ZM62.5716 182H55.4486C59.9565 177.955 65.0574 174.567 70.605 171.967C75.0873 170.111 79.4492 167.978 83.6652 165.58C87.1453 163.705 90.3501 161.362 93.1893 158.616C99.1773 152.61 99.7564 144.872 94.8896 137.908C93.5232 135.679 91.8144 133.677 89.8257 131.976C75.4594 118.748 58.3579 114.105 39.3097 116.427C33.6793 117.074 28.1863 118.534 23 120.75V100.289C30.8893 97.8199 39.1084 96.5243 47.3955 96.4543C67.0496 96.835 84.395 102.839 99.2363 115.598C105.6 120.828 110.609 127.398 112.673 135.527C113.487 138.54 113.633 141.696 113.101 144.773C112.569 147.849 111.372 150.771 109.595 153.331C105.098 160.062 98.7241 165.308 91.2721 168.41C86.8177 170.388 82.3529 172.186 77.897 173.981C77.5385 174.126 77.18 174.27 76.8216 174.415C71.5484 176.416 66.7957 178.93 62.5716 182ZM69.0402 167.103C61.0649 170.637 53.9313 175.717 48.0289 182H47C45.4807 182 43.9944 181.859 42.5535 181.589C46.6931 176.915 51.4471 172.789 56.6997 169.325C58.237 168.236 59.6456 166.98 60.899 165.581C63.6817 162.635 63.6817 159.49 60.684 156.731C58.8849 155.005 56.791 153.607 54.4988 152.6C43.0275 148.304 30.3786 153.289 23.5363 163.069C23.185 161.435 23 159.739 23 158V142.233C27.1944 139.488 31.857 137.486 36.7839 136.336C48.2676 133.864 60.2188 134.318 70.4078 140.979C73.4397 142.842 76.08 145.274 78.1824 148.139C81.8787 153.175 81.0901 158.592 76.2357 162.657C74.0748 164.491 71.6491 165.99 69.0402 167.103Z" fill="url(#paint0_linear_760_1205)"/>
<defs>
<linearGradient id="paint0_linear_760_1205" x1="25.8101" y1="48.6935" x2="112.008" y2="201.465" gradientUnits="userSpaceOnUse">
<stop stop-color="#FF7F69"/>
<stop offset="0.299586" stop-color="#FF2D83"/>
<stop offset="1" stop-color="#6695FF"/>
</linearGradient>
</defs>
</svg>
