<svg width="355" height="92" viewBox="0 0 355 92" fill="none" xmlns="http://www.w3.org/2000/svg">
<path fill-rule="evenodd" clip-rule="evenodd" d="M77 66.1704V36.5153C77 30.6768 72.267 25.9438 66.4286 25.9438H42.8019C39.6582 25.9438 36.6775 24.5446 34.6691 22.1261L31.9843 18.893C29.9759 16.4744 26.9952 15.0752 23.8514 15.0752H13.5714C7.73299 15.0752 3 19.8082 3 25.6466V32.9984C5.94668 32.4718 9.30819 32.355 11.9881 32.2817C24.939 32.5272 35.1003 36.6266 43.542 44.9507C46.7369 48.1571 48.7837 52.0267 49.1941 56.5491C49.6149 61.5676 47.6408 65.5991 43.9524 68.8943C41.4121 71.2756 38.212 72.5916 35.0172 73.7457C34.415 73.9639 33.8268 74.182 33.2443 74.3981C31.8468 74.9163 30.4824 75.4224 29.0378 75.8868C28.2453 76.1316 27.4691 76.4173 26.7119 76.7419H66.4286C72.267 76.7419 77 72.0089 77 66.1704ZM19.8294 76.7419H16.8001C18.7172 75.0216 20.8866 73.5808 23.2458 72.475C25.1521 71.6856 27.0072 70.7784 28.8002 69.7588C30.2802 68.9614 31.6432 67.9649 32.8507 66.7971C35.3973 64.2428 35.6436 60.952 33.5738 57.9903C32.9927 57.0423 32.2659 56.1909 31.4202 55.4674C25.3104 49.8417 18.0373 47.8672 9.93636 48.8545C7.54179 49.1299 5.20569 49.7507 3 50.6929V41.9912C6.35521 40.9412 9.85071 40.3902 13.3751 40.3604C21.7337 40.5223 29.1105 43.0759 35.4224 48.5018C38.1289 50.7264 40.2588 53.5203 41.1368 56.9773C41.4829 58.2589 41.5451 59.6012 41.3189 60.9096C41.0927 62.2179 40.5836 63.4605 39.8277 64.5495C37.9154 67.4121 35.2045 69.6431 32.0353 70.9623C30.141 71.8032 28.2424 72.5681 26.3475 73.3315C26.1948 73.393 26.0423 73.4544 25.8897 73.5159C23.6471 74.367 21.6258 75.4361 19.8294 76.7419ZM22.5804 70.4065C19.1886 71.9094 16.1548 74.07 13.6446 76.7419H13.5714C12.8149 76.7419 12.0768 76.6624 11.3653 76.5113C13.1142 74.5464 15.1191 72.8106 17.332 71.3513C17.9858 70.8881 18.5849 70.3539 19.118 69.7588C20.3014 68.5061 20.3014 67.1684 19.0265 65.9953C18.2614 65.2613 17.3709 64.6665 16.396 64.2383C11.5482 62.423 6.20586 64.505 3.2834 68.6122C3.09807 67.8284 3 67.0109 3 66.1704V59.8296C4.78384 58.6623 6.76681 57.8105 8.86217 57.3217C13.746 56.2702 18.8287 56.4634 23.162 59.2962C24.4514 60.0885 25.5743 61.1227 26.4684 62.3415C28.0404 64.4831 27.705 66.7866 25.6405 68.5156C24.7215 69.2956 23.6899 69.933 22.5804 70.4065Z" fill="white"/>
<path fill-rule="evenodd" clip-rule="evenodd" d="M77 66.1704V36.5153C77 30.6768 72.267 25.9438 66.4286 25.9438H42.8019C39.6582 25.9438 36.6775 24.5446 34.6691 22.1261L31.9843 18.893C29.9759 16.4744 26.9952 15.0752 23.8514 15.0752H13.5714C7.73299 15.0752 3 19.8082 3 25.6466V32.9984C5.94668 32.4718 9.30819 32.355 11.9881 32.2817C24.939 32.5272 35.1003 36.6266 43.542 44.9507C46.7369 48.1571 48.7837 52.0267 49.1941 56.5491C49.6149 61.5676 47.6408 65.5991 43.9524 68.8943C41.4121 71.2756 38.212 72.5916 35.0172 73.7457C34.415 73.9639 33.8268 74.182 33.2443 74.3981C31.8468 74.9163 30.4824 75.4224 29.0378 75.8868C28.2453 76.1316 27.4691 76.4173 26.7119 76.7419H66.4286C72.267 76.7419 77 72.0089 77 66.1704ZM19.8294 76.7419H16.8001C18.7172 75.0216 20.8866 73.5808 23.2458 72.475C25.1521 71.6856 27.0072 70.7784 28.8002 69.7588C30.2802 68.9614 31.6432 67.9649 32.8507 66.7971C35.3973 64.2428 35.6436 60.952 33.5738 57.9903C32.9927 57.0423 32.2659 56.1909 31.4202 55.4674C25.3104 49.8417 18.0373 47.8672 9.93636 48.8545C7.54179 49.1299 5.20569 49.7507 3 50.6929V41.9912C6.35521 40.9412 9.85071 40.3902 13.3751 40.3604C21.7337 40.5223 29.1105 43.0759 35.4224 48.5018C38.1289 50.7264 40.2588 53.5203 41.1368 56.9773C41.4829 58.2589 41.5451 59.6012 41.3189 60.9096C41.0927 62.2179 40.5836 63.4605 39.8277 64.5495C37.9154 67.4121 35.2045 69.6431 32.0353 70.9623C30.141 71.8032 28.2424 72.5681 26.3475 73.3315C26.1948 73.393 26.0423 73.4544 25.8897 73.5159C23.6471 74.367 21.6258 75.4361 19.8294 76.7419ZM22.5804 70.4065C19.1886 71.9094 16.1548 74.07 13.6446 76.7419H13.5714C12.8149 76.7419 12.0768 76.6624 11.3653 76.5113C13.1142 74.5464 15.1191 72.8106 17.332 71.3513C17.9858 70.8881 18.5849 70.3539 19.118 69.7588C20.3014 68.5061 20.3014 67.1684 19.0265 65.9953C18.2614 65.2613 17.3709 64.6665 16.396 64.2383C11.5482 62.423 6.20586 64.505 3.2834 68.6122C3.09807 67.8284 3 67.0109 3 66.1704V59.8296C4.78384 58.6623 6.76681 57.8105 8.86217 57.3217C13.746 56.2702 18.8287 56.4634 23.162 59.2962C24.4514 60.0885 25.5743 61.1227 26.4684 62.3415C28.0404 64.4831 27.705 66.7866 25.6405 68.5156C24.7215 69.2956 23.6899 69.933 22.5804 70.4065Z" fill="url(#paint0_linear_779_528)"/>
<path d="M103 63V32.2H112.152L120.512 59.832H121.216V32.2H125.924V63H116.772L108.412 35.324H107.708V63H103Z" fill="white"/>
<path d="M132.348 63V32.2H151.356V36.512H137.1V45.4H150.212V49.712H137.1V63H132.348Z" fill="white"/>
<path d="M163.328 63V36.512H153.868V32.2H177.54V36.512H168.08V63H163.328Z" fill="white"/>
<path d="M202.288 63.616C199.971 63.616 197.918 63.2053 196.128 62.384C194.339 61.5627 192.931 60.36 191.904 58.776C190.907 57.1627 190.408 55.212 190.408 52.924V51.824H195.116V52.924C195.116 55.0947 195.762 56.7227 197.052 57.808C198.372 58.8933 200.118 59.436 202.288 59.436C204.488 59.436 206.146 58.9813 207.26 58.072C208.375 57.1333 208.932 55.9307 208.932 54.464C208.932 53.496 208.668 52.704 208.14 52.088C207.612 51.472 206.864 50.988 205.896 50.636C204.928 50.2547 203.77 49.9027 202.42 49.58L200.792 49.184C198.827 48.7147 197.111 48.1427 195.644 47.468C194.207 46.764 193.092 45.84 192.3 44.696C191.508 43.552 191.112 42.0853 191.112 40.296C191.112 38.4773 191.552 36.9227 192.432 35.632C193.342 34.3413 194.588 33.344 196.172 32.64C197.756 31.936 199.619 31.584 201.76 31.584C203.902 31.584 205.808 31.9507 207.48 32.684C209.182 33.4173 210.516 34.5027 211.484 35.94C212.452 37.3773 212.936 39.1813 212.936 41.352V42.936H208.228V41.352C208.228 40.032 207.95 38.9613 207.392 38.14C206.864 37.3187 206.116 36.7173 205.148 36.336C204.18 35.9547 203.051 35.764 201.76 35.764C199.883 35.764 198.416 36.16 197.36 36.952C196.334 37.7147 195.82 38.7853 195.82 40.164C195.82 41.1027 196.04 41.88 196.48 42.496C196.95 43.0827 197.624 43.5667 198.504 43.948C199.384 44.3293 200.484 44.6667 201.804 44.96L203.432 45.356C205.427 45.796 207.187 46.368 208.712 47.072C210.238 47.7467 211.44 48.6707 212.32 49.844C213.2 51.0173 213.64 52.528 213.64 54.376C213.64 56.224 213.171 57.8373 212.232 59.216C211.323 60.5947 210.018 61.68 208.316 62.472C206.615 63.2347 204.606 63.616 202.288 63.616Z" fill="white"/>
<path d="M226.901 63C225.581 63 224.525 62.604 223.733 61.812C222.97 61.02 222.589 59.964 222.589 58.644V45.136H216.605V41.308H222.589V34.136H227.121V41.308H233.589V45.136H227.121V57.852C227.121 58.732 227.532 59.172 228.353 59.172H232.885V63H226.901Z" fill="white"/>
<path d="M248.304 63.616C246.133 63.616 244.197 63.176 242.496 62.296C240.824 61.3867 239.504 60.096 238.536 58.424C237.568 56.752 237.084 54.772 237.084 52.484V51.824C237.084 49.536 237.568 47.5707 238.536 45.928C239.504 44.256 240.824 42.9653 242.496 42.056C244.197 41.1467 246.133 40.692 248.304 40.692C250.474 40.692 252.41 41.1467 254.112 42.056C255.813 42.9653 257.148 44.256 258.116 45.928C259.084 47.5707 259.568 49.536 259.568 51.824V52.484C259.568 54.772 259.084 56.752 258.116 58.424C257.148 60.096 255.813 61.3867 254.112 62.296C252.41 63.176 250.474 63.616 248.304 63.616ZM248.304 59.568C250.298 59.568 251.912 58.9373 253.144 57.676C254.405 56.3853 255.036 54.6107 255.036 52.352V51.956C255.036 49.6973 254.42 47.9373 253.188 46.676C251.956 45.3853 250.328 44.74 248.304 44.74C246.338 44.74 244.725 45.3853 243.464 46.676C242.232 47.9373 241.616 49.6973 241.616 51.956V52.352C241.616 54.6107 242.232 56.3853 243.464 57.676C244.725 58.9373 246.338 59.568 248.304 59.568Z" fill="white"/>
<path d="M265.21 63V41.308H269.654V43.86H270.358C270.71 42.9507 271.267 42.2907 272.03 41.88C272.822 41.44 273.79 41.22 274.934 41.22H277.53V45.312H274.758C273.291 45.312 272.089 45.7227 271.15 46.544C270.211 47.336 269.742 48.568 269.742 50.24V63H265.21Z" fill="white"/>
<path d="M288.356 63.616C286.802 63.616 285.408 63.352 284.176 62.824C282.974 62.296 282.006 61.5187 281.272 60.492C280.568 59.4653 280.216 58.2187 280.216 56.752C280.216 55.256 280.568 54.024 281.272 53.056C282.006 52.0587 282.988 51.3107 284.22 50.812C285.482 50.3133 286.904 50.064 288.488 50.064H295.088V48.656C295.088 47.3947 294.707 46.3827 293.944 45.62C293.182 44.8573 292.008 44.476 290.424 44.476C288.87 44.476 287.682 44.8427 286.86 45.576C286.039 46.3093 285.496 47.2627 285.232 48.436L281.008 47.072C281.36 45.8987 281.918 44.8427 282.68 43.904C283.472 42.936 284.514 42.1587 285.804 41.572C287.095 40.9853 288.65 40.692 290.468 40.692C293.284 40.692 295.499 41.4107 297.112 42.848C298.726 44.2853 299.532 46.324 299.532 48.964V57.896C299.532 58.776 299.943 59.216 300.764 59.216H302.612V63H299.224C298.198 63 297.362 62.736 296.716 62.208C296.071 61.68 295.748 60.9613 295.748 60.052V59.92H295.088C294.854 60.36 294.502 60.8733 294.032 61.46C293.563 62.0467 292.874 62.56 291.964 63C291.055 63.4107 289.852 63.616 288.356 63.616ZM289.016 59.876C290.835 59.876 292.302 59.3627 293.416 58.336C294.531 57.28 295.088 55.8427 295.088 54.024V53.584H288.752C287.55 53.584 286.582 53.848 285.848 54.376C285.115 54.8747 284.748 55.6227 284.748 56.62C284.748 57.6173 285.13 58.4093 285.892 58.996C286.655 59.5827 287.696 59.876 289.016 59.876Z" fill="white"/>
<path d="M305.447 52.264V51.604C305.447 49.316 305.902 47.3653 306.811 45.752C307.75 44.1387 308.982 42.892 310.507 42.012C312.032 41.132 313.704 40.692 315.523 40.692C317.635 40.692 319.248 41.088 320.363 41.88C321.507 42.672 322.343 43.5227 322.871 44.432H323.575V41.308H327.975V67.444C327.975 68.764 327.579 69.82 326.787 70.612C326.024 71.404 324.968 71.8 323.619 71.8H309.011V67.84H322.211C323.062 67.84 323.487 67.4 323.487 66.52V59.612H322.783C322.46 60.14 322.006 60.6827 321.419 61.24C320.832 61.7973 320.055 62.252 319.087 62.604C318.148 62.956 316.96 63.132 315.523 63.132C313.704 63.132 312.018 62.7067 310.463 61.856C308.938 60.976 307.72 59.7293 306.811 58.116C305.902 56.4733 305.447 54.5227 305.447 52.264ZM316.755 59.172C318.72 59.172 320.334 58.556 321.595 57.324C322.886 56.0627 323.531 54.332 323.531 52.132V51.736C323.531 49.4773 322.9 47.7467 321.639 46.544C320.378 45.312 318.75 44.696 316.755 44.696C314.819 44.696 313.206 45.312 311.915 46.544C310.654 47.7467 310.023 49.4773 310.023 51.736V52.132C310.023 54.332 310.654 56.0627 311.915 57.324C313.206 58.556 314.819 59.172 316.755 59.172Z" fill="white"/>
<path d="M344.592 63.616C342.392 63.616 340.47 63.1613 338.828 62.252C337.185 61.3133 335.894 60.008 334.956 58.336C334.046 56.6347 333.592 54.6693 333.592 52.44V51.912C333.592 49.6533 334.046 47.688 334.956 46.016C335.865 44.3147 337.126 43.0093 338.74 42.1C340.382 41.1613 342.274 40.692 344.416 40.692C346.498 40.692 348.317 41.1613 349.872 42.1C351.456 43.0093 352.688 44.2853 353.568 45.928C354.448 47.5707 354.888 49.492 354.888 51.692V53.408H338.212C338.27 55.3147 338.901 56.84 340.104 57.984C341.336 59.0987 342.861 59.656 344.68 59.656C346.381 59.656 347.657 59.2747 348.508 58.512C349.388 57.7493 350.062 56.8693 350.532 55.872L354.272 57.808C353.861 58.6293 353.26 59.4947 352.468 60.404C351.705 61.3133 350.693 62.076 349.432 62.692C348.17 63.308 346.557 63.616 344.592 63.616ZM338.256 49.932H350.268C350.15 48.2893 349.564 47.0133 348.508 46.104C347.452 45.1653 346.073 44.696 344.372 44.696C342.67 44.696 341.277 45.1653 340.192 46.104C339.136 47.0133 338.49 48.2893 338.256 49.932Z" fill="white"/>
<defs>
<linearGradient id="paint0_linear_779_528" x1="3" y1="15.0752" x2="64.6081" y2="87.3106" gradientUnits="userSpaceOnUse">
<stop stop-color="#FF62D4"/>
<stop offset="1" stop-color="#E52782"/>
</linearGradient>
</defs>
</svg>
