<svg width="341" height="92" viewBox="0 0 341 92" fill="none" xmlns="http://www.w3.org/2000/svg">
<path fill-rule="evenodd" clip-rule="evenodd" d="M23.8169 0.871946C22.6543 2.03454 22.6543 3.91948 23.8169 5.08208L35.1822 16.4474H19.6811C10.4684 16.4474 3 23.9158 3 33.1285V33.505C6.20249 32.5923 10.4524 32.4384 13.6739 32.3504C26.0806 32.5855 35.8149 36.5127 43.9019 44.487C46.9625 47.5586 48.9232 51.2656 49.3164 55.598C49.7195 60.4056 47.8284 64.2677 44.295 67.4244C41.8614 69.7056 38.7959 70.9663 35.7352 72.0719C35.1584 72.2809 34.595 72.4898 34.037 72.6968C32.6983 73.1933 31.3912 73.6781 30.0072 74.123C27.6162 74.8615 25.3802 75.9884 23.3811 77.4448H60.3189C69.5316 77.4448 77 69.9764 77 60.7637V33.1285C77 23.9158 69.5316 16.4474 60.3189 16.4474H44.5301L55.8954 5.08211C57.058 3.91951 57.058 2.03457 55.8954 0.871979C54.7328 -0.290617 52.8478 -0.290613 51.6852 0.871982L39.8562 12.7011L28.0271 0.871947C26.8645 -0.290649 24.9795 -0.290649 23.8169 0.871946ZM18.3678 77.3939C20.6978 74.9711 23.5767 73.1477 26.9913 71.8518C27.1372 71.793 27.2831 71.7342 27.429 71.6754C29.2446 70.944 31.0637 70.2112 32.8787 69.4054C35.9147 68.1417 38.5117 66.0045 40.3436 63.2621C41.0678 62.2189 41.5555 61.0286 41.7721 59.7752C41.9888 58.5218 41.9293 57.2359 41.5977 56.0082C40.7566 52.6964 38.7162 50.02 36.1234 47.8888C30.0768 42.691 23.0101 40.2447 15.0027 40.0896C10.8969 40.1243 6.83202 40.8974 3 42.3707V50.9894C5.69467 49.5172 8.65182 48.5782 11.7084 48.2267C19.469 47.2809 26.4364 49.1724 32.2894 54.5617C33.0996 55.2548 33.7958 56.0704 34.3525 56.9786C36.3353 59.8158 36.0994 62.9683 33.6598 65.4152C32.503 66.5339 31.1974 67.4886 29.7795 68.2525C28.0619 69.2293 26.2848 70.0983 24.4586 70.8545C21.282 72.3434 18.4649 74.4663 16.1728 77.0752C16.8885 77.2284 17.6212 77.3357 18.3678 77.3939ZM3 60.7637V60.3218C5.18162 58.3764 7.82138 57.0048 10.6794 56.3381C15.358 55.3308 20.2271 55.5158 24.3783 58.2296C25.6135 58.9886 26.6892 59.9793 27.5457 61.1469C29.0517 63.1985 28.7304 65.4052 26.7526 67.0615C25.8722 67.8087 24.884 68.4194 23.8211 68.873C19.9608 70.5835 16.5845 73.1832 13.9583 76.4373C13.371 76.2228 12.7991 75.9762 12.2447 75.6996C14.1058 73.4117 16.3132 71.4136 18.7933 69.7781C19.4196 69.3344 19.9935 68.8227 20.5042 68.2526C21.6379 67.0525 21.6379 65.771 20.4166 64.6472C19.6836 63.9441 18.8305 63.3743 17.8966 62.964C12.8823 61.0864 7.31563 63.5614 4.71107 68.1313C3.6155 65.9095 3 63.4085 3 60.7637Z" fill="url(#paint0_linear_779_932)"/>
<path d="M103 63V32.2H112.152L120.512 59.832H121.216V32.2H125.924V63H116.772L108.412 35.324H107.708V63H103Z" fill="white"/>
<path d="M132.348 63V32.2H151.356V36.512H137.1V45.4H150.212V49.712H137.1V63H132.348Z" fill="white"/>
<path d="M163.328 63V36.512H153.868V32.2H177.54V36.512H168.08V63H163.328Z" fill="white"/>
<path d="M190.672 63V58.776H194.808V36.424H190.672V32.2H202.992C207.099 32.2 210.238 33.2413 212.408 35.324C214.608 37.4066 215.708 40.5453 215.708 44.74V50.504C215.708 54.6986 214.608 57.8373 212.408 59.92C210.238 61.9733 207.099 63 202.992 63H190.672ZM199.604 58.688H203.036C205.706 58.688 207.686 58.0133 208.976 56.664C210.267 55.3146 210.912 53.3053 210.912 50.636V44.564C210.912 41.8653 210.267 39.856 208.976 38.536C207.686 37.216 205.706 36.556 203.036 36.556H199.604V58.688Z" fill="white"/>
<path d="M221.21 63V41.308H225.742V63H221.21ZM223.498 38.36C222.618 38.36 221.87 38.0813 221.254 37.524C220.667 36.9373 220.374 36.1893 220.374 35.28C220.374 34.3706 220.667 33.6373 221.254 33.08C221.87 32.4933 222.618 32.2 223.498 32.2C224.407 32.2 225.155 32.4933 225.742 33.08C226.329 33.6373 226.622 34.3706 226.622 35.28C226.622 36.1893 226.329 36.9373 225.742 37.524C225.155 38.0813 224.407 38.36 223.498 38.36Z" fill="white"/>
<path d="M241.356 63.616C238.599 63.616 236.311 63 234.492 61.768C232.673 60.536 231.559 58.6733 231.148 56.18L235.372 55.168C235.607 56.3706 236.003 57.324 236.56 58.028C237.117 58.732 237.807 59.2306 238.628 59.524C239.479 59.8173 240.388 59.964 241.356 59.964C242.793 59.964 243.893 59.6853 244.656 59.128C245.448 58.5706 245.844 57.852 245.844 56.972C245.844 56.092 245.477 55.4466 244.744 55.036C244.011 54.6253 242.925 54.288 241.488 54.024L239.992 53.76C238.525 53.496 237.191 53.1146 235.988 52.616C234.785 52.1173 233.832 51.428 233.128 50.548C232.424 49.668 232.072 48.5386 232.072 47.16C232.072 45.1066 232.835 43.5226 234.36 42.408C235.885 41.264 237.909 40.692 240.432 40.692C242.867 40.692 244.861 41.2493 246.416 42.364C248 43.4493 249.027 44.9306 249.496 46.808L245.272 47.996C245.008 46.676 244.451 45.752 243.6 45.224C242.749 44.6666 241.693 44.388 240.432 44.388C239.2 44.388 238.232 44.6226 237.528 45.092C236.824 45.532 236.472 46.1626 236.472 46.984C236.472 47.864 236.809 48.5093 237.484 48.92C238.188 49.3306 239.127 49.6386 240.3 49.844L241.84 50.108C243.395 50.372 244.817 50.7386 246.108 51.208C247.399 51.6773 248.411 52.352 249.144 53.232C249.907 54.112 250.288 55.2853 250.288 56.752C250.288 58.9226 249.481 60.6093 247.868 61.812C246.255 63.0146 244.084 63.616 241.356 63.616Z" fill="white"/>
<path d="M255.585 71.8V41.308H260.029V44.432H260.733C261.29 43.464 262.126 42.5986 263.241 41.836C264.385 41.0733 266.013 40.692 268.125 40.692C269.944 40.692 271.601 41.132 273.097 42.012C274.622 42.892 275.84 44.168 276.749 45.84C277.688 47.4826 278.157 49.4773 278.157 51.824V52.484C278.157 54.8306 277.702 56.84 276.793 58.512C275.884 60.1546 274.666 61.416 273.141 62.296C271.616 63.176 269.944 63.616 268.125 63.616C266.717 63.616 265.529 63.44 264.561 63.088C263.593 62.736 262.816 62.296 262.229 61.768C261.642 61.2106 261.173 60.6386 260.821 60.052H260.117V71.8H255.585ZM266.805 59.656C268.8 59.656 270.428 59.0253 271.689 57.764C272.95 56.5026 273.581 54.6986 273.581 52.352V51.956C273.581 49.6386 272.936 47.8493 271.645 46.588C270.384 45.3266 268.77 44.696 266.805 44.696C264.869 44.696 263.256 45.3266 261.965 46.588C260.704 47.8493 260.073 49.6386 260.073 51.956V52.352C260.073 54.6986 260.704 56.5026 261.965 57.764C263.256 59.0253 264.869 59.656 266.805 59.656Z" fill="white"/>
<path d="M283.773 63V32.2H288.305V63H283.773Z" fill="white"/>
<path d="M301.762 63.616C300.208 63.616 298.814 63.352 297.582 62.824C296.38 62.296 295.412 61.5186 294.678 60.492C293.974 59.4653 293.622 58.2186 293.622 56.752C293.622 55.256 293.974 54.024 294.678 53.056C295.412 52.0586 296.394 51.3106 297.626 50.812C298.888 50.3133 300.31 50.064 301.894 50.064H308.494V48.656C308.494 47.3946 308.113 46.3826 307.35 45.62C306.588 44.8573 305.414 44.476 303.83 44.476C302.276 44.476 301.088 44.8426 300.266 45.576C299.445 46.3093 298.902 47.2626 298.638 48.436L294.414 47.072C294.766 45.8986 295.324 44.8426 296.086 43.904C296.878 42.936 297.92 42.1586 299.21 41.572C300.501 40.9853 302.056 40.692 303.874 40.692C306.69 40.692 308.905 41.4106 310.518 42.848C312.132 44.2853 312.938 46.324 312.938 48.964V57.896C312.938 58.776 313.349 59.216 314.17 59.216H316.018V63H312.63C311.604 63 310.768 62.736 310.122 62.208C309.477 61.68 309.154 60.9613 309.154 60.052V59.92H308.494C308.26 60.36 307.908 60.8733 307.438 61.46C306.969 62.0466 306.28 62.56 305.37 63C304.461 63.4106 303.258 63.616 301.762 63.616ZM302.422 59.876C304.241 59.876 305.708 59.3626 306.822 58.336C307.937 57.28 308.494 55.8426 308.494 54.024V53.584H302.158C300.956 53.584 299.988 53.848 299.254 54.376C298.521 54.8746 298.154 55.6226 298.154 56.62C298.154 57.6173 298.536 58.4093 299.298 58.996C300.061 59.5826 301.102 59.876 302.422 59.876Z" fill="white"/>
<path d="M322.374 71.8V67.84H334.474C335.296 67.84 335.706 67.4 335.706 66.52V59.832H335.002C334.738 60.4186 334.328 60.9906 333.77 61.548C333.242 62.076 332.524 62.516 331.614 62.868C330.705 63.22 329.561 63.396 328.182 63.396C326.54 63.396 325.073 63.0293 323.782 62.296C322.492 61.5626 321.48 60.5213 320.746 59.172C320.013 57.8226 319.646 56.224 319.646 54.376V41.308H324.178V54.024C324.178 55.9013 324.648 57.2946 325.586 58.204C326.525 59.084 327.83 59.524 329.502 59.524C331.35 59.524 332.832 58.908 333.946 57.676C335.09 56.444 335.662 54.6546 335.662 52.308V41.308H340.194V67.444C340.194 68.764 339.798 69.82 339.006 70.612C338.244 71.404 337.188 71.8 335.838 71.8H322.374Z" fill="white"/>
<defs>
<linearGradient id="paint0_linear_779_932" x1="4.56151" y1="6.40844" x2="54.9104" y2="77.4629" gradientUnits="userSpaceOnUse">
<stop stop-color="#00A3FF"/>
<stop offset="1" stop-color="#8F37FF"/>
</linearGradient>
</defs>
</svg>
