<svg width="340" height="92" viewBox="0 0 340 92" fill="none" xmlns="http://www.w3.org/2000/svg">
<path fill-rule="evenodd" clip-rule="evenodd" d="M38.6232 0.673166C39.2963 -0.224394 40.6427 -0.224394 41.3159 0.673167L46.7854 7.96585C47.6175 9.0753 46.8258 10.6585 45.439 10.6585L34.5 10.6585C33.1132 10.6585 32.3216 9.07529 33.1537 7.96585L38.6232 0.673166ZM41.3159 91.3268C40.6427 92.2244 39.2963 92.2244 38.6232 91.3268L33.1537 84.0341C32.3216 82.9247 33.1132 81.3414 34.5 81.3414H45.439C46.8258 81.3414 47.6175 82.9247 46.7854 84.0341L41.3159 91.3268ZM17.8242 32.5858C17.4591 32.5858 17.0852 32.5919 16.7042 32.6046L16.7305 32.6003C19.3426 27.9726 23.2917 24.2315 28.0664 21.8617C32.8411 19.4919 38.2213 18.6026 43.51 19.3088C48.7988 20.0151 53.7525 22.2845 57.7294 25.823C61.7064 29.3615 64.5233 34.0061 65.8153 39.1552C69.9647 39.7892 73.7201 41.9585 76.3299 45.2287C78.9397 48.4989 80.2112 52.6287 79.89 56.7914C79.5687 60.9542 77.6784 64.8427 74.5975 67.6786C71.5165 70.5144 67.4722 72.0883 63.2742 72.0853H28.4755C29.7653 71.3477 31.1387 70.7495 32.5739 70.3062C33.8236 69.9045 35.0038 69.4668 36.2126 69.0185L36.2129 69.0184L36.2149 69.0176C36.7182 68.831 37.2264 68.6425 37.7467 68.454C40.5105 67.4557 43.2789 66.3173 45.4765 64.2574C48.6674 61.4069 50.3751 57.9194 50.0111 53.5782C49.6561 49.6661 47.8854 46.3187 45.1215 43.545C37.8186 36.3443 29.0281 32.7981 17.8242 32.5858ZM29.8505 68.2553C27.3453 69.206 25.1595 70.471 23.2993 72.0853H20.9012C22.8093 70.1321 25.0629 68.5254 27.5632 67.3536C29.2123 66.6707 30.8171 65.886 32.3683 65.004C33.6486 64.3142 34.8277 63.4521 35.8723 62.4419C38.0754 60.2324 38.2885 57.3857 36.4979 54.8237C35.9952 54.0036 35.3665 53.2671 34.6348 52.6412C29.3492 47.7748 23.0573 46.0668 16.0492 46.9208C13.5494 47.2083 4.09411 48.6858 0.491527 56.6161C0.197265 55.3285 0.0308773 54.0065 0 52.6684C0.307254 40.9151 15.5113 39.6039 19.0241 39.5742C26.2552 39.7143 32.6368 41.9233 38.0972 46.6169C40.4386 48.5413 42.2812 50.9581 43.0407 53.9486C43.3402 55.0572 43.394 56.2184 43.1983 57.3502C43.0026 58.482 42.5622 59.5568 41.9082 60.4989C40.254 62.9752 37.9087 64.9051 35.167 66.0462C33.5283 66.7737 31.8858 67.4353 30.2465 68.0957L29.8505 68.2553ZM5.21547 65.6064C5.42066 65.8301 5.6314 66.0495 5.84761 66.2645C6.54824 66.9613 7.29553 67.601 8.08219 68.1806C9.60096 61.495 16.6228 58.3538 21.6368 60.2311C22.4801 60.6015 23.2505 61.1161 23.9124 61.751C25.0153 62.7658 25.0153 63.923 23.9915 65.0066C23.5304 65.5214 23.0121 65.9835 22.4465 66.3842C20.1889 67.8728 18.1816 69.6941 16.4926 71.7808C17.1182 71.891 17.7506 71.9718 18.3878 72.0223C20.7132 69.2578 23.65 67.043 26.9875 65.5643C27.9474 65.1546 28.8398 64.6032 29.6348 63.9285C31.4209 62.4329 31.711 60.4402 30.351 58.5876C29.5775 57.5333 28.6061 56.6387 27.4907 55.9533C23.742 53.5028 19.3449 53.3357 15.1199 54.2453C12.3587 54.8894 6.80594 57.1114 5.21547 65.6064Z" fill="url(#paint0_linear_779_369)"/>
<path d="M103 63V32.2H112.152L120.512 59.832H121.216V32.2H125.924V63H116.772L108.412 35.324H107.708V63H103Z" fill="white"/>
<path d="M132.348 63V32.2H151.356V36.512H137.1V45.4H150.212V49.712H137.1V63H132.348Z" fill="white"/>
<path d="M163.328 63V36.512H153.868V32.2H177.54V36.512H168.08V63H163.328Z" fill="white"/>
<path d="M197.918 63V36.512H188.458V32.2H212.13V36.512H202.67V63H197.918Z" fill="white"/>
<path d="M222.48 63.616C220.309 63.616 218.373 63.176 216.672 62.296C215 61.3866 213.68 60.096 212.712 58.424C211.744 56.752 211.26 54.772 211.26 52.484V51.824C211.26 49.536 211.744 47.5706 212.712 45.928C213.68 44.256 215 42.9653 216.672 42.056C218.373 41.1466 220.309 40.692 222.48 40.692C224.65 40.692 226.586 41.1466 228.288 42.056C229.989 42.9653 231.324 44.256 232.292 45.928C233.26 47.5706 233.744 49.536 233.744 51.824V52.484C233.744 54.772 233.26 56.752 232.292 58.424C231.324 60.096 229.989 61.3866 228.288 62.296C226.586 63.176 224.65 63.616 222.48 63.616ZM222.48 59.568C224.474 59.568 226.088 58.9373 227.32 57.676C228.581 56.3853 229.212 54.6106 229.212 52.352V51.956C229.212 49.6973 228.596 47.9373 227.364 46.676C226.132 45.3853 224.504 44.74 222.48 44.74C220.514 44.74 218.901 45.3853 217.64 46.676C216.408 47.9373 215.792 49.6973 215.792 51.956V52.352C215.792 54.6106 216.408 56.3853 217.64 57.676C218.901 58.9373 220.514 59.568 222.48 59.568Z" fill="white"/>
<path d="M239.386 63V41.308H243.83V43.86H244.534C244.886 42.9506 245.443 42.2906 246.206 41.88C246.998 41.44 247.966 41.22 249.11 41.22H251.706V45.312H248.934C247.467 45.312 246.265 45.7226 245.326 46.544C244.387 47.336 243.918 48.568 243.918 50.24V63H239.386Z" fill="white"/>
<path d="M256.402 63V41.308H260.846V43.86H261.55C261.902 42.9506 262.459 42.2906 263.222 41.88C264.014 41.44 264.982 41.22 266.126 41.22H268.722V45.312H265.95C264.483 45.312 263.28 45.7226 262.342 46.544C261.403 47.336 260.934 48.568 260.934 50.24V63H256.402Z" fill="white"/>
<path d="M282.588 63.616C280.388 63.616 278.466 63.1613 276.824 62.252C275.181 61.3133 273.89 60.008 272.952 58.336C272.042 56.6346 271.588 54.6693 271.588 52.44V51.912C271.588 49.6533 272.042 47.688 272.952 46.016C273.861 44.3146 275.122 43.0093 276.736 42.1C278.378 41.1613 280.27 40.692 282.412 40.692C284.494 40.692 286.313 41.1613 287.868 42.1C289.452 43.0093 290.684 44.2853 291.564 45.928C292.444 47.5706 292.884 49.492 292.884 51.692V53.408H276.208C276.266 55.3146 276.897 56.84 278.1 57.984C279.332 59.0986 280.857 59.656 282.676 59.656C284.377 59.656 285.653 59.2746 286.504 58.512C287.384 57.7493 288.058 56.8693 288.528 55.872L292.268 57.808C291.857 58.6293 291.256 59.4946 290.464 60.404C289.701 61.3133 288.689 62.076 287.428 62.692C286.166 63.308 284.553 63.616 282.588 63.616ZM276.252 49.932H288.264C288.146 48.2893 287.56 47.0133 286.504 46.104C285.448 45.1653 284.069 44.696 282.368 44.696C280.666 44.696 279.273 45.1653 278.188 46.104C277.132 47.0133 276.486 48.2893 276.252 49.932Z" fill="white"/>
<path d="M298.339 63V41.308H302.783V44.564H303.487C303.898 43.684 304.631 42.8626 305.687 42.1C306.743 41.3373 308.312 40.956 310.395 40.956C312.038 40.956 313.49 41.3226 314.751 42.056C316.042 42.7893 317.054 43.8306 317.787 45.18C318.52 46.5 318.887 48.0986 318.887 49.976V63H314.355V50.328C314.355 48.4506 313.886 47.072 312.947 46.192C312.008 45.2826 310.718 44.828 309.075 44.828C307.198 44.828 305.687 45.444 304.543 46.676C303.428 47.908 302.871 49.6973 302.871 52.044V63H298.339Z" fill="white"/>
<path d="M332.948 63C331.628 63 330.572 62.604 329.78 61.812C329.017 61.02 328.636 59.964 328.636 58.644V45.136H322.652V41.308H328.636V34.136H333.168V41.308H339.636V45.136H333.168V57.852C333.168 58.732 333.578 59.172 334.4 59.172H338.932V63H332.948Z" fill="white"/>
<defs>
<linearGradient id="paint0_linear_779_369" x1="40" y1="8.25989e-07" x2="51.228" y2="86.5433" gradientUnits="userSpaceOnUse">
<stop stop-color="#FF9649"/>
<stop offset="1" stop-color="#FF426F"/>
</linearGradient>
</defs>
</svg>
